<svg width="112" height="16" viewBox="0 0 112 16" fill="none" xmlns="http://www.w3.org/2000/svg">
<g clip-path="url(#clip0_1_377)">
<path d="M8 1.0625L7.547 2.094L5.922 5.734L1.953 6.1565L0.828003 6.2815L1.672 7.0315L4.625 9.703L3.797 13.6095L3.5625 14.703L4.547 14.1405L8 12.1405L11.453 14.1405L12.4375 14.703L12.203 13.6095L11.375 9.703L14.328 7.0315L15.172 6.2815L14.047 6.1565L10.078 5.7345L8.453 2.094L8 1.0625ZM8 3.5155L9.2815 6.4065L9.4065 6.6715L9.6875 6.703L12.828 7.031L10.4845 9.141L10.2655 9.3435L10.328 9.625L10.9845 12.703L8.25 11.1405L8 10.9845L7.75 11.1405L5.0155 12.703L5.672 9.625L5.7345 9.3435L5.5155 9.1405L3.172 7.0315L6.3125 6.703L6.594 6.672L6.719 6.4065L8 3.5155Z" fill="white"/>
</g>
<g clip-path="url(#clip1_1_377)">
<path d="M33 1.0625L32.547 2.094L30.922 5.734L26.953 6.1565L25.828 6.2815L26.672 7.0315L29.625 9.703L28.797 13.6095L28.5625 14.703L29.547 14.1405L33 12.1405L36.453 14.1405L37.4375 14.703L37.203 13.6095L36.375 9.703L39.328 7.0315L40.172 6.2815L39.047 6.1565L35.078 5.7345L33.453 2.094L33 1.0625ZM33 3.5155L34.2815 6.4065L34.4065 6.6715L34.6875 6.703L37.828 7.031L35.4845 9.141L35.2655 9.3435L35.328 9.625L35.9845 12.703L33.25 11.1405L33 10.9845L32.75 11.1405L30.0155 12.703L30.672 9.625L30.7345 9.3435L30.5155 9.1405L28.172 7.0315L31.3125 6.703L31.594 6.672L31.719 6.4065L33 3.5155Z" fill="white"/>
</g>
<g clip-path="url(#clip2_1_377)">
<path d="M57 1.0625L56.547 2.094L54.922 5.734L50.953 6.1565L49.828 6.2815L50.672 7.0315L53.625 9.703L52.797 13.6095L52.5625 14.703L53.547 14.1405L57 12.1405L60.453 14.1405L61.4375 14.703L61.203 13.6095L60.375 9.703L63.328 7.0315L64.172 6.2815L63.047 6.1565L59.078 5.7345L57.453 2.094L57 1.0625ZM57 3.5155L58.2815 6.4065L58.4065 6.6715L58.6875 6.703L61.828 7.031L59.4845 9.141L59.2655 9.3435L59.328 9.625L59.9845 12.703L57.25 11.1405L57 10.9845L56.75 11.1405L54.0155 12.703L54.672 9.625L54.7345 9.3435L54.5155 9.1405L52.172 7.0315L55.3125 6.703L55.594 6.672L55.719 6.4065L57 3.5155Z" fill="white"/>
</g>
<g clip-path="url(#clip3_1_377)">
<path d="M81 1.0625L80.547 2.094L78.922 5.734L74.953 6.1565L73.828 6.2815L74.672 7.0315L77.625 9.703L76.797 13.6095L76.5625 14.703L77.547 14.1405L81 12.1405L84.453 14.1405L85.4375 14.703L85.203 13.6095L84.375 9.703L87.328 7.0315L88.172 6.2815L87.047 6.1565L83.078 5.7345L81.453 2.094L81 1.0625ZM81 3.5155L82.2815 6.4065L82.4065 6.6715L82.6875 6.703L85.828 7.031L83.4845 9.141L83.2655 9.3435L83.328 9.625L83.9845 12.703L81.25 11.1405L81 10.9845L80.75 11.1405L78.0155 12.703L78.672 9.625L78.7345 9.3435L78.5155 9.1405L76.172 7.0315L79.3125 6.703L79.594 6.672L79.719 6.4065L81 3.5155Z" fill="white"/>
</g>
<path d="M104 1.0625L103.547 2.094L101.922 5.734L97.953 6.1565L96.828 6.2815L97.672 7.0315L100.625 9.703L99.797 13.6095L99.5625 14.703L100.547 14.1405L104 12.1405L107.453 14.1405L108.438 14.703L108.203 13.6095L107.375 9.703L110.328 7.0315L111.172 6.2815L110.047 6.1565L106.078 5.7345L104.453 2.094L104 1.0625ZM104 3.5155L105.282 6.4065L105.407 6.6715L105.688 6.703L108.828 7.031L106.485 9.141L106.266 9.3435L106.328 9.625L106.985 12.703L104.25 11.1405L104 10.9845L103.75 11.1405L101.016 12.703L101.672 9.625L101.735 9.3435L101.516 9.1405L99.172 7.0315L102.313 6.703L102.594 6.672L102.719 6.4065L104 3.5155Z" fill="white"/>
<defs>
<clipPath id="clip0_1_377">
<rect width="16" height="16" fill="white"/>
</clipPath>
<clipPath id="clip1_1_377">
<rect width="16" height="16" fill="white" transform="translate(25)"/>
</clipPath>
<clipPath id="clip2_1_377">
<rect width="16" height="16" fill="white" transform="translate(49)"/>
</clipPath>
<clipPath id="clip3_1_377">
<rect width="16" height="16" fill="white" transform="translate(73)"/>
</clipPath>
</defs>
</svg>
