<svg width="1440" height="434" viewBox="0 0 1440 434" fill="none" xmlns="http://www.w3.org/2000/svg">
<rect y="26" width="1440" height="408" fill="#0461D1"/>
<path fill-rule="evenodd" clip-rule="evenodd" d="M0 230L39.6 257.2C80.4 284.4 159.6 338.8 240 318.4C320.4 298 399.6 202.8 480 155.2C560.4 107.6 639.6 107.6 720 134.8C800.4 162 879.6 216.4 960 243.6C1040.4 270.8 1119.6 270.8 1200 230C1280.4 189.2 1359.6 107.6 1400.4 66.8L1440 26V434H1400.4C1359.6 434 1280.4 434 1200 434C1119.6 434 1040.4 434 960 434C879.6 434 800.4 434 720 434C639.6 434 560.4 434 480 434C399.6 434 320.4 434 240 434C159.6 434 80.4 434 39.6 434H0V230Z" fill="url(#paint0_linear_1_68)"/>
<g opacity="0.8">
<g opacity="0.4">
<path d="M286.701 124.486V163.428C286.701 167.103 283.5 170.139 279.479 170.139C275.457 170.139 272.257 167.103 272.257 163.428V124.486C272.257 120.81 275.457 117.774 279.479 117.774C283.5 117.774 286.701 120.81 286.701 124.486ZM314.5 146.12V163.428C314.5 167.103 311.299 170.139 307.278 170.139C303.257 170.139 300.056 167.103 300.056 163.428V146.12C300.056 142.445 303.257 139.409 307.278 139.409C311.299 139.409 314.5 142.445 314.5 146.12ZM229.944 135.663V163.788C229.944 167.464 226.743 170.5 222.722 170.5C218.701 170.5 215.5 167.464 215.5 163.788V135.663C215.5 131.988 218.701 128.952 222.722 128.952C226.743 128.952 229.944 131.988 229.944 135.663ZM258.515 103.212V163.788C258.515 167.464 255.315 170.5 251.293 170.5C247.272 170.5 244.071 167.464 244.071 163.788V103.212C244.071 99.5364 247.272 96.5 251.293 96.5C255.315 96.5 258.515 99.5364 258.515 103.212Z" stroke="white"/>
</g>
<g filter="url(#filter0_d_1_68)">
<path d="M225.569 62.5685C220.993 67.1438 213.575 67.1438 209 62.5685L225.569 46C230.144 50.5753 230.144 57.9933 225.569 62.5685Z" fill="#FFC2A0"/>
</g>
<circle cx="169.5" cy="50.5" r="4.5" fill="#78B4FD"/>
<circle cx="224.5" cy="97.5" r="4.5" fill="#07E31D"/>
</g>
<g opacity="0.8">
<circle cx="375.5" cy="278.5" r="4.5" fill="#78B4FD"/>
<circle cx="422.5" cy="286.5" r="12.5" fill="#6AC5FB"/>
<circle cx="382.5" cy="325.5" r="4.5" fill="#13D726"/>
<path opacity="0.4" d="M411.035 343.174L411.38 342.813L411.364 342.797L411.346 342.783C408.92 340.849 405.544 340.971 403.25 343.077L403.239 343.088L403.228 343.099L397.022 349.541C395.677 350.937 393.518 350.925 392.188 349.513L392.188 349.513C390.844 348.087 390.856 345.779 392.214 344.369L392.209 344.365C392.214 344.369 392.214 344.369 392.214 344.369L392.214 344.369L392.215 344.368L392.219 344.365L392.232 344.351L392.286 344.295L392.488 344.085L393.21 343.336L395.405 341.059C396.204 340.23 397.005 339.4 397.608 338.774C397.91 338.461 398.163 338.199 398.341 338.015C398.423 337.93 398.486 337.865 398.531 337.818C398.589 337.758 398.617 337.729 398.614 337.732L398.27 337.369M411.035 343.174L391.824 349.856C390.297 348.236 390.311 345.624 391.854 344.023C391.854 344.023 398.224 337.413 398.27 337.369M411.035 343.174C411.38 342.813 411.38 342.813 411.38 342.813L411.381 342.814L411.384 342.817L411.398 342.83L411.452 342.881L411.661 343.081L412.458 343.84L415.301 346.55C417.655 348.793 420.793 351.784 423.934 354.777C427.074 357.77 430.217 360.764 432.579 363.015C433.76 364.14 434.746 365.078 435.439 365.738C435.785 366.068 436.058 366.327 436.246 366.506C436.447 366.697 436.527 366.772 436.515 366.763C438.935 368.771 441.834 369.75 444.717 369.75C448.335 369.75 451.936 368.207 454.537 365.2L454.545 365.191L454.545 365.191L476.298 341.214C477.616 339.76 477.561 337.453 476.178 336.072L476.528 335.722L476.178 336.072C474.808 334.704 472.65 334.758 471.345 336.197L449.557 360.214L449.556 360.214C449.534 360.239 449.513 360.263 449.491 360.288L449.491 360.288C447.269 362.879 443.496 363.248 440.853 361.143L440.836 361.129L440.819 361.114L441.164 360.752C440.819 361.114 440.819 361.114 440.819 361.113L440.818 361.113L440.815 361.109L440.801 361.096L440.748 361.045L440.538 360.845L439.741 360.086L436.898 357.376C434.545 355.133 431.406 352.142 428.266 349.149C425.125 346.157 421.982 343.162 419.62 340.912C418.439 339.787 417.453 338.848 416.76 338.188C416.414 337.859 416.141 337.599 415.953 337.421C415.892 337.363 415.843 337.315 415.803 337.278C415.711 337.191 415.675 337.156 415.684 337.164M411.035 343.174L415.684 337.164M398.27 337.369C403.271 332.649 410.729 332.402 416.004 336.779M398.27 337.369L398.614 337.732C403.431 333.186 410.605 332.949 415.684 337.164M416.004 336.779L415.684 337.164M416.004 336.779L415.685 337.164C415.684 337.164 415.684 337.164 415.684 337.164M416.004 336.779L415.684 337.164M449.112 359.962C449.136 359.934 449.161 359.906 449.187 359.878L470.974 335.861C472.471 334.211 474.959 334.147 476.531 335.718C478.103 337.289 478.165 339.9 476.668 341.55L454.915 365.527L449.112 359.962ZM490.812 332.312V343.449C490.812 345.474 489.254 347.074 487.382 347.074C485.51 347.074 483.951 345.474 483.951 343.449V332.312C483.951 329.784 481.986 327.687 479.52 327.687H468.908C467.035 327.687 465.477 326.087 465.477 324.062C465.477 322.037 467.035 320.438 468.908 320.438H479.52C485.724 320.438 490.812 325.742 490.812 332.312Z" stroke="white"/>
</g>
<g opacity="0.8">
<path d="M1094.31 47.7932C1097.28 46.9962 1100 49.7179 1099.21 52.6921L1095.83 65.3079C1095.03 68.2821 1091.31 69.2783 1089.13 67.101L1079.9 57.8657C1077.72 55.6883 1078.72 51.9705 1081.69 51.1735L1094.31 47.7932Z" fill="#13D726"/>
<circle cx="1079.5" cy="105.5" r="4.5" fill="#78B4FD"/>
<path opacity="0.4" d="M1207.48 111.423L1207.83 111.062L1207.48 111.423C1210.95 114.75 1211.06 120.259 1207.74 123.727L1153.44 180.322C1153.44 180.322 1153.44 180.322 1153.44 180.322C1151.73 182.103 1149.45 183 1147.16 183C1144.99 183 1142.83 182.196 1141.14 180.578L1141.14 180.578C1137.67 177.251 1137.56 171.742 1140.88 168.273C1140.88 168.273 1140.88 168.273 1140.88 168.273L1195.18 111.678L1195.18 111.678C1198.5 108.209 1204.01 108.095 1207.48 111.423ZM1149 109C1155.08 109 1160.01 113.926 1160.01 120.003C1160.01 126.08 1155.08 131.006 1149 131.006C1142.93 131.006 1138 126.08 1138 120.003C1138 113.926 1142.93 109 1149 109ZM1199.16 183C1193.08 183 1188.15 178.074 1188.15 171.997C1188.15 165.92 1193.08 160.994 1199.16 160.994C1205.23 160.994 1210.16 165.92 1210.16 171.997C1210.16 178.074 1205.23 183 1199.16 183Z" stroke="white"/>
<path d="M1133.65 98.8966C1135.14 98.4981 1136.5 99.8589 1136.1 101.346L1135.22 104.654C1134.82 106.141 1132.96 106.639 1131.87 105.551L1129.45 103.129C1128.36 102.04 1128.86 100.181 1130.35 99.7829L1133.65 98.8966Z" fill="#FFC2A0"/>
</g>
<g opacity="0.8">
<g filter="url(#filter1_d_1_68)">
<path d="M971.569 290.569C966.993 295.144 959.575 295.144 955 290.569L971.569 274C976.144 278.575 976.144 285.993 971.569 290.569Z" fill="#FFC2A0"/>
</g>
<g opacity="0.4">
<path d="M966.757 318.323L966.757 318.323C965.522 318.076 964.245 318.463 963.354 319.354C963.354 319.354 963.354 319.354 963.354 319.354M966.757 318.323L963.354 319.354M966.757 318.323L978.85 320.74C984.75 321.92 990.116 324.791 994.371 329.046L994.725 328.693L994.371 329.046L1009.33 344.008C1015.21 349.887 1015.21 359.454 1009.33 365.333C1006.48 368.182 1002.7 369.75 998.671 369.75C994.642 369.75 990.857 368.182 988.008 365.333L973.046 350.371C973.046 350.371 973.046 350.371 973.046 350.371C968.791 346.117 965.92 340.75 964.74 334.85L962.323 322.757C962.323 322.757 962.323 322.757 962.323 322.757M966.757 318.323L962.323 322.757M963.354 319.354C962.463 320.245 962.076 321.522 962.323 322.757M963.354 319.354L962.323 322.757M977.373 328.131L977.373 328.131L971.557 326.969L970.821 326.822L970.968 327.557L972.131 333.373L972.621 333.275L972.131 333.373C973.017 337.808 975.177 341.844 978.375 345.042L978.375 345.042L993.337 360.004C993.337 360.004 993.337 360.004 993.337 360.004C994.761 361.428 996.657 362.213 998.671 362.213C1000.68 362.213 1002.58 361.428 1004 360.004C1006.95 357.063 1006.95 352.278 1004 349.337L989.042 334.375C989.042 334.375 989.042 334.375 989.042 334.375C985.843 331.177 981.808 329.017 977.373 328.131Z" stroke="white"/>
</g>
<circle cx="922.5" cy="278.5" r="4.5" fill="#78B4FD"/>
<circle cx="929.5" cy="325.5" r="4.5" fill="#13D726"/>
</g>
<defs>
<filter id="filter0_d_1_68" x="159" y="0" width="120" height="120" filterUnits="userSpaceOnUse" color-interpolation-filters="sRGB">
<feFlood flood-opacity="0" result="BackgroundImageFix"/>
<feColorMatrix in="SourceAlpha" type="matrix" values="0 0 0 0 0 0 0 0 0 0 0 0 0 0 0 0 0 0 127 0" result="hardAlpha"/>
<feOffset dy="4"/>
<feGaussianBlur stdDeviation="25"/>
<feColorMatrix type="matrix" values="0 0 0 0 0 0 0 0 0 0 0 0 0 0 0 0 0 0 0.25 0"/>
<feBlend mode="normal" in2="BackgroundImageFix" result="effect1_dropShadow_1_68"/>
<feBlend mode="normal" in="SourceGraphic" in2="effect1_dropShadow_1_68" result="shape"/>
</filter>
<filter id="filter1_d_1_68" x="905" y="228" width="120" height="120" filterUnits="userSpaceOnUse" color-interpolation-filters="sRGB">
<feFlood flood-opacity="0" result="BackgroundImageFix"/>
<feColorMatrix in="SourceAlpha" type="matrix" values="0 0 0 0 0 0 0 0 0 0 0 0 0 0 0 0 0 0 127 0" result="hardAlpha"/>
<feOffset dy="4"/>
<feGaussianBlur stdDeviation="25"/>
<feColorMatrix type="matrix" values="0 0 0 0 0 0 0 0 0 0 0 0 0 0 0 0 0 0 0.25 0"/>
<feBlend mode="normal" in2="BackgroundImageFix" result="effect1_dropShadow_1_68"/>
<feBlend mode="normal" in="SourceGraphic" in2="effect1_dropShadow_1_68" result="shape"/>
</filter>
<linearGradient id="paint0_linear_1_68" x1="720" y1="215.361" x2="720" y2="470.361" gradientUnits="userSpaceOnUse">
<stop stop-color="#085EC5"/>
<stop offset="1" stop-color="#1379F4"/>
</linearGradient>
</defs>
</svg>
