<svg width="40" height="22" viewBox="0 0 40 22" fill="none" xmlns="http://www.w3.org/2000/svg">
<rect width="40" height="22" rx="4" fill="#FF1414"/>
<path d="M9.12406 15H10.8161V11.46H14.6201V9.9H10.8161V8.184H15.1241V6.636H9.12406V15ZM18.8618 8.952C18.2138 8.952 17.5898 9.348 17.3258 10.02V9.084H15.6818V15H17.3138V12.132C17.3138 11.052 17.7338 10.56 18.4898 10.56C18.7778 10.56 19.0538 10.644 19.2338 10.764L20.0138 9.312C19.6178 9.06 19.2578 8.952 18.8618 8.952ZM25.4233 12.024C25.4233 10.296 24.4993 8.952 22.6513 8.952C20.6113 8.952 19.7953 10.56 19.7953 12.072C19.7953 13.62 20.6353 15.132 22.7473 15.132C23.7673 15.132 24.5833 14.748 25.2193 14.04L24.0913 13.044C23.7193 13.488 23.2513 13.656 22.7593 13.656C21.9073 13.656 21.4873 13.212 21.4153 12.588L25.3873 12.588C25.4113 12.372 25.4233 12.204 25.4233 12.024ZM21.4033 11.352C21.4753 10.872 21.8113 10.308 22.6393 10.308C23.3113 10.308 23.8513 10.704 23.8753 11.352H21.4033ZM31.5756 12.024C31.5756 10.296 30.6516 8.952 28.8036 8.952C26.7636 8.952 25.9476 10.56 25.9476 12.072C25.9476 13.62 26.7876 15.132 28.8996 15.132C29.9196 15.132 30.7356 14.748 31.3716 14.04L30.2436 13.044C29.8716 13.488 29.4036 13.656 28.9116 13.656C28.0596 13.656 27.6396 13.212 27.5676 12.588H31.5396C31.5636 12.372 31.5756 12.204 31.5756 12.024ZM27.5556 11.352C27.6276 10.872 27.9636 10.308 28.7916 10.308C29.4636 10.308 30.0036 10.704 30.0276 11.352H27.5556Z" fill="white"/>
</svg>
