<svg width="60" height="22" viewBox="0 0 60 22" fill="none" xmlns="http://www.w3.org/2000/svg">
<rect width="60" height="22" rx="4" fill="#FF1414"/>
<path d="M12.695 15.204C15.095 15.204 16.751 13.452 16.751 10.824C16.751 8.184 15.119 6.432 12.695 6.432C10.295 6.432 8.65102 8.184 8.65102 10.824C8.65102 13.44 10.295 15.204 12.695 15.204ZM12.695 13.584C11.267 13.584 10.343 12.54 10.343 10.824C10.343 9.096 11.267 8.052 12.695 8.052C14.135 8.052 15.047 9.108 15.047 10.824C15.047 12.516 14.135 13.584 12.695 13.584ZM21.2312 8.952C20.5592 8.952 19.9352 9.144 19.5032 9.696V9.084H17.8712V15H19.5032V12.432C19.5032 11.58 19.5032 10.368 20.7272 10.368C21.7472 10.368 21.7472 11.208 21.7472 11.64V15H23.3672V11.124C23.3672 9.768 22.5872 8.952 21.2312 8.952ZM30.1401 15.132C32.0001 15.132 33.1401 13.68 33.1401 12.036C33.1401 10.38 32.0121 8.952 30.1401 8.952C28.2561 8.952 27.1401 10.38 27.1401 12.036C27.1401 13.68 28.2681 15.132 30.1401 15.132ZM30.1401 13.704C29.0961 13.704 28.7601 12.876 28.7601 12.036C28.7601 11.172 29.1081 10.368 30.1401 10.368C31.1841 10.368 31.5201 11.172 31.5201 12.036C31.5201 12.888 31.1721 13.704 30.1401 13.704ZM34.3531 15H35.9731V10.356H37.8571V15H39.4891V10.356H40.7851V9.084H39.4891V8.472C39.4891 8.1 39.6931 7.956 39.9451 7.956C40.1251 7.956 40.2691 8.016 40.3891 8.088L40.9051 6.744C40.5931 6.6 40.1971 6.504 39.7891 6.504C39.3331 6.504 38.9011 6.648 38.5291 6.924C38.0491 6.624 37.4611 6.504 36.9211 6.504C35.5651 6.504 34.3531 7.296 34.3531 8.7V9.084H33.3931V10.356H34.3531V15ZM35.9731 9.084V8.724C35.9731 8.184 36.2611 7.812 36.9931 7.812C37.3651 7.812 37.6411 7.896 37.8931 8.028C37.8811 8.112 37.8691 8.232 37.8691 8.328V9.084H35.9731ZM46.5736 12.024C46.5736 10.296 45.6496 8.952 43.8016 8.952C41.7616 8.952 40.9456 10.56 40.9456 12.072C40.9456 13.62 41.7856 15.132 43.8976 15.132C44.9176 15.132 45.7336 14.748 46.3696 14.04L45.2416 13.044C44.8696 13.488 44.4016 13.656 43.9096 13.656C43.0576 13.656 42.6376 13.212 42.5656 12.588H46.5376C46.5616 12.372 46.5736 12.204 46.5736 12.024ZM42.5536 11.352C42.6256 10.872 42.9616 10.308 43.7896 10.308C44.4616 10.308 45.0016 10.704 45.0256 11.352H42.5536ZM50.77 8.952C50.122 8.952 49.498 9.348 49.234 10.02V9.084L47.59 9.084V15H49.222V12.132C49.222 11.052 49.642 10.56 50.398 10.56C50.686 10.56 50.962 10.644 51.142 10.764L51.922 9.312C51.526 9.06 51.166 8.952 50.77 8.952Z" fill="white"/>
</svg>
