<svg width="112" height="16" viewBox="0 0 112 16" fill="none" xmlns="http://www.w3.org/2000/svg">
<g clip-path="url(#clip0_1_219)">
<path d="M8 1.0625L7.547 2.094L5.922 5.734L1.953 6.1565L0.828003 6.2815L1.672 7.0315L4.625 9.703L3.797 13.6095L3.5625 14.703L4.547 14.1405L8 12.1405L11.453 14.1405L12.4375 14.703L12.203 13.6095L11.375 9.703L14.328 7.0315L15.172 6.2815L14.047 6.1565L10.078 5.7345L8.453 2.094L8 1.0625ZM8 3.5155L9.2815 6.4065L9.4065 6.6715L9.6875 6.703L12.828 7.031L10.4845 9.141L10.2655 9.3435L10.328 9.625L10.9845 12.703L8.25 11.1405L8 10.9845L7.75 11.1405L5.0155 12.703L5.672 9.625L5.7345 9.3435L5.5155 9.1405L3.172 7.0315L6.3125 6.703L6.594 6.672L6.719 6.4065L8 3.5155Z" fill="#FBCA1E"/>
<path d="M8 1.0625L7.547 2.094L5.922 5.734L1.953 6.1565L0.828003 6.2815L1.672 7.0315L4.625 9.703L3.797 13.6095L3.5625 14.703L4.547 14.1405L8 12.1405L11.453 14.1405L12.4375 14.703L12.203 13.6095L11.375 9.703L14.328 7.0315L15.172 6.2815L14.047 6.1565L10.078 5.7345L8.453 2.094L8 1.0625Z" fill="#FBCA1E"/>
</g>
<path d="M32 1.0625L31.547 2.094L29.922 5.734L25.953 6.1565L24.828 6.2815L25.672 7.0315L28.625 9.703L27.797 13.6095L27.5625 14.703L28.547 14.1405L32 12.1405L35.453 14.1405L36.4375 14.703L36.203 13.6095L35.375 9.703L38.328 7.0315L39.172 6.2815L38.047 6.1565L34.078 5.7345L32.453 2.094L32 1.0625ZM32 3.5155L33.2815 6.4065L33.4065 6.6715L33.6875 6.703L36.828 7.031L34.4845 9.141L34.2655 9.3435L34.328 9.625L34.9845 12.703L32.25 11.1405L32 10.9845L31.75 11.1405L29.0155 12.703L29.672 9.625L29.7345 9.3435L29.5155 9.1405L27.172 7.0315L30.3125 6.703L30.594 6.672L30.719 6.4065L32 3.5155Z" fill="#444444"/>
<path d="M56 1.0625L55.547 2.094L53.922 5.734L49.953 6.1565L48.828 6.2815L49.672 7.0315L52.625 9.703L51.797 13.6095L51.5625 14.703L52.547 14.1405L56 12.1405L59.453 14.1405L60.4375 14.703L60.203 13.6095L59.375 9.703L62.328 7.0315L63.172 6.2815L62.047 6.1565L58.078 5.7345L56.453 2.094L56 1.0625ZM56 3.5155L57.2815 6.4065L57.4065 6.6715L57.6875 6.703L60.828 7.031L58.4845 9.141L58.2655 9.3435L58.328 9.625L58.9845 12.703L56.25 11.1405L56 10.9845L55.75 11.1405L53.0155 12.703L53.672 9.625L53.7345 9.3435L53.5155 9.1405L51.172 7.0315L54.3125 6.703L54.594 6.672L54.719 6.4065L56 3.5155Z" fill="#444444"/>
<path d="M80 1.0625L79.547 2.094L77.922 5.734L73.953 6.1565L72.828 6.2815L73.672 7.0315L76.625 9.703L75.797 13.6095L75.5625 14.703L76.547 14.1405L80 12.1405L83.453 14.1405L84.4375 14.703L84.203 13.6095L83.375 9.703L86.328 7.0315L87.172 6.2815L86.047 6.1565L82.078 5.7345L80.453 2.094L80 1.0625ZM80 3.5155L81.2815 6.4065L81.4065 6.6715L81.6875 6.703L84.828 7.031L82.4845 9.141L82.2655 9.3435L82.328 9.625L82.9845 12.703L80.25 11.1405L80 10.9845L79.75 11.1405L77.0155 12.703L77.672 9.625L77.7345 9.3435L77.5155 9.1405L75.172 7.0315L78.3125 6.703L78.594 6.672L78.719 6.4065L80 3.5155Z" fill="#444444"/>
<path d="M104 1.0625L103.547 2.094L101.922 5.734L97.953 6.1565L96.828 6.2815L97.672 7.0315L100.625 9.703L99.797 13.6095L99.5625 14.703L100.547 14.1405L104 12.1405L107.453 14.1405L108.438 14.703L108.203 13.6095L107.375 9.703L110.328 7.0315L111.172 6.2815L110.047 6.1565L106.078 5.7345L104.453 2.094L104 1.0625ZM104 3.5155L105.282 6.4065L105.407 6.6715L105.688 6.703L108.828 7.031L106.485 9.141L106.266 9.3435L106.328 9.625L106.985 12.703L104.25 11.1405L104 10.9845L103.75 11.1405L101.016 12.703L101.672 9.625L101.735 9.3435L101.516 9.1405L99.172 7.0315L102.313 6.703L102.594 6.672L102.719 6.4065L104 3.5155Z" fill="#444444"/>
<defs>
<clipPath id="clip0_1_219">
<rect width="16" height="16" fill="white"/>
</clipPath>
</defs>
</svg>
