<svg width="256" height="32" viewBox="0 0 256 32" fill="none" xmlns="http://www.w3.org/2000/svg">
<circle cx="64" cy="16" r="15.5" fill="#F0F0F0" stroke="#0461D1"/>
<path d="M63.4395 11.636V12.212C63.4395 12.752 63.1755 12.956 62.6475 12.956H61.4355V14.024H63.4395V20H64.6755V11.636H63.4395Z" fill="#444444"/>
<path opacity="0.4" d="M6.77439 20.024L7.23039 19.208L2.40639 16.46L7.23039 13.7L6.77439 12.884L0.510391 16.46L6.77439 20.024Z" fill="#444444"/>
<path d="M109.684 18.836C111.352 17.792 113.056 16.064 113.056 14.096C113.056 12.524 111.988 11.528 110.464 11.528C108.652 11.528 107.668 12.944 107.668 14.516L108.88 14.612C108.904 13.628 109.324 12.716 110.452 12.716C111.364 12.716 111.82 13.304 111.82 14.168C111.82 16.208 109.216 17.948 107.584 18.956V20H113.416V18.836H109.684Z" fill="#444444"/>
<path d="M157.44 20.12C159.072 20.12 160.476 19.22 160.476 17.564C160.476 16.556 159.936 15.752 158.964 15.488C159.648 15.164 160.032 14.528 160.032 13.76C160.032 12.344 158.796 11.516 157.428 11.516C155.976 11.516 154.788 12.416 154.788 13.952L156 14.036C156.012 13.184 156.588 12.704 157.452 12.704C158.196 12.704 158.796 13.088 158.796 13.904C158.796 14.684 158.232 15.116 157.056 15.116V16.112C158.016 16.112 159.24 16.196 159.24 17.444C159.24 18.464 158.424 18.932 157.464 18.932C156.384 18.932 155.604 18.368 155.604 17.336L154.38 17.408C154.38 19.208 155.772 20.12 157.44 20.12Z" fill="#444444"/>
<path d="M206.432 16.844V11.636H205.34L201.2 17.264V18.02H205.196V20H206.432V18.02H207.776V16.844H206.432ZM202.772 16.844L205.196 13.448V16.844H202.772Z" fill="#444444"/>
<path d="M249.226 20.024L248.77 19.208L253.594 16.46L248.77 13.7L249.226 12.884L255.49 16.46L249.226 20.024Z" fill="#444444"/>
</svg>
